PathFileType	4	(X/Y/Z)	/Volumes/GoogleDrive/My Drive/Research/Stanford/Projects/Digital Athlete Project/Sprinting/Sprint Simulation/sprinter/subjects/JA1/experimental_data/TRC/run0700cms.trc
DataRate	CameraRate	NumFrames	NumMarkers	Units	OrigDataRate	OrigDataStartFrame	OrigNumFrames
250.000000	250.000000	5	51	mm	250.000000	207	413
Frame#	Time	LPAT			RWR			LASI			LMFS			C7			LSH			RSH			RTHLD			T7			RTHLP			RARM			LLEPI			LLMAL			P3			RELB			RFOREARM			SACR			P1			P2			RTILAT			RTHAP			LTHLP			RLEPI			RPAT			LTIAD			LFOREARM			RLMAL			RP5MT			LTHLD			RMFL			LARM			LMFL			LTOE			RTHAD			MAN			RTOE			LTILAT			LHEEL			RHEEL			RMFS			LELB			RP1MT			RTIAP			LWR			RASI			LTHAP			LTHAD			LTIAP			RTIAD			LP5MT			LP1MT			
		X1	Y1	Z1	X2	Y2	Z2	X3	Y3	Z3	X4	Y4	Z4	X5	Y5	Z5	X6	Y6	Z6	X7	Y7	Z7	X8	Y8	Z8	X9	Y9	Z9	X10	Y10	Z10	X11	Y11	Z11	X12	Y12	Z12	X13	Y13	Z13	X14	Y14	Z14	X15	Y15	Z15	X16	Y16	Z16	X17	Y17	Z17	X18	Y18	Z18	X19	Y19	Z19	X20	Y20	Z20	X21	Y21	Z21	X22	Y22	Z22	X23	Y23	Z23	X24	Y24	Z24	X25	Y25	Z25	X26	Y26	Z26	X27	Y27	Z27	X28	Y28	Z28	X29	Y29	Z29	X30	Y30	Z30	X31	Y31	Z31	X32	Y32	Z32	X33	Y33	Z33	X34	Y34	Z34	X35	Y35	Z35	X36	Y36	Z36	X37	Y37	Z37	X38	Y38	Z38	X39	Y39	Z39	X40	Y40	Z40	X41	Y41	Z41	X42	Y42	Z42	X43	Y43	Z43	X44	Y44	Z44	X45	Y45	Z45	X46	Y46	Z46	X47	Y47	Z47	X48	Y48	Z48	X49	Y49	Z49	X50	Y50	Z50	X51	Y51	Z51	
207	0.828000	765.558289	788.800781	168.805038	700.648254	1363.142578	375.512909	393.355255	1019.584351	121.150391	548.989990	312.478210	192.715088	268.862061	1494.682617	234.280991	281.498291	1482.286499	65.640778	322.592194	1484.623657	392.020996	143.009460	664.603027	385.025421	215.604736	1301.077515	245.030975	193.391525	764.282104	408.088837	394.223633	1322.113159	494.599945	685.497803	745.919373	103.390907	458.656769	371.216309	145.738922	173.411316	998.716309	231.010117	452.604797	1205.663208	546.075623	555.694641	1275.739868	474.260651	220.763596	1078.600952	232.965042	205.382339	1049.904053	179.521210	206.072388	1051.472534	287.103241	-122.503777	402.773560	335.827820	289.243134	690.549133	327.282959	493.738708	841.098511	48.376740	56.784245	544.964661	349.787476	126.213753	497.111847	294.251221	565.839172	481.195099	193.407272	14.574451	1145.325317	-49.524193	-280.574005	226.594345	291.975464	-296.007385	62.137703	301.053284	599.119385	803.133545	69.150703	-289.193420	142.800323	288.105499	153.940292	1371.856079	-30.470142	505.007690	306.891815	132.106033	610.101929	247.342758	177.974655	228.862091	610.791077	306.978119	408.360962	1403.990234	211.969864	-225.839767	52.500160	220.794235	571.272461	557.406555	116.160774	387.216125	369.964661	199.089966	-334.922180	274.088196	243.854568	-236.599518	128.882324	234.831329	36.404243	1294.026611	-62.851360	-254.468704	67.783760	182.326630	-75.379898	376.954529	257.972260	-47.636490	958.172607	-27.472740	398.821289	999.295227	333.763702	550.748657	952.021790	132.465836	654.058960	899.858643	138.989838	647.435913	594.678833	186.436768	-171.992157	292.568024	240.865433	544.320984	244.431152	101.484253	578.967834	237.086441	219.455048
208	0.832000	794.238037	792.511353	168.713394	721.611267	1380.181396	370.797974	422.781525	1020.744690	121.486580	605.891479	304.582153	193.981186	296.883057	1495.827148	235.029388	308.192230	1483.912720	66.918900	350.369995	1486.461426	391.624725	166.287704	670.443604	384.685120	244.911987	1302.225708	246.545609	218.966385	768.764587	408.494507	425.967377	1325.671021	493.804718	714.958374	747.790588	104.154518	511.799103	357.783691	147.391495	202.395477	1001.810547	233.414078	483.718842	1211.825439	547.078613	583.579224	1285.277832	471.913696	251.118500	1080.661011	234.472900	235.106964	1052.030396	181.155869	236.758209	1053.714844	288.733154	-103.446854	412.272186	336.249115	312.989502	692.759705	326.549744	522.143005	843.716370	48.485676	77.361496	552.904846	349.601379	146.221481	502.438995	292.942535	612.490417	474.662964	194.057129	38.440231	1151.737061	-48.536045	-263.027588	238.162903	294.098511	-291.147766	73.080635	301.168121	627.461182	805.558228	69.644600	-277.597717	154.945313	289.161926	178.969177	1376.606812	-28.861111	561.133850	296.751221	134.143951	670.723083	243.445648	178.926987	250.648926	614.785583	305.921661	436.321198	1405.700806	210.978622	-215.592316	59.213852	224.665115	612.115479	551.065125	117.055313	440.855530	352.092834	201.261948	-313.969391	289.108368	246.001617	-224.305328	138.310043	237.051666	60.145149	1300.641235	-61.254635	-246.918839	76.274780	183.764175	-56.385853	385.095734	259.114014	-23.791687	964.254700	-25.875265	428.368805	999.448792	333.618591	578.872314	953.486755	133.757034	682.654419	902.356506	139.395401	686.732239	593.214478	186.703629	-153.679596	301.397949	242.740021	604.564514	236.043564	103.186035	640.624023	231.452911	220.669052
209	0.836000	822.404663	795.054504	168.717331	742.291748	1395.990479	367.097076	451.970764	1021.774292	121.399841	662.516113	299.298859	197.070038	325.241058	1496.926270	235.104187	335.205750	1485.373291	68.117882	378.306946	1488.203125	391.068237	190.630493	675.649719	384.656525	274.032654	1303.354614	248.387497	245.179352	772.796936	408.715485	457.571106	1328.974487	492.804504	743.877686	748.733154	104.589867	564.941711	344.733002	149.120987	231.183426	1004.344788	235.499954	518.842590	1214.226562	544.369080	611.168335	1294.236938	470.146484	280.977875	1082.571655	235.937866	264.616943	1053.715576	182.597244	266.888641	1055.932373	290.196167	-83.151772	421.499908	336.951141	337.542755	695.128784	325.844757	550.176819	845.099731	48.693275	99.645401	559.806519	349.549133	167.616470	507.109436	291.891815	658.956604	468.253632	194.954559	62.559429	1157.654053	-47.236866	-245.994873	251.222549	295.988770	-284.297119	85.483788	301.770691	655.468140	806.629272	70.302910	-263.810547	169.212738	291.419525	204.269867	1380.843872	-26.753904	620.722412	287.089020	136.523163	730.751343	239.950027	180.110138	273.725220	618.691833	304.957886	464.371399	1407.121338	210.477951	-215.299088	67.620789	228.181000	652.901550	544.495911	117.669365	494.881531	334.956635	203.263199	-293.821869	304.548676	246.875412	-211.722031	149.517899	238.583099	84.929588	1306.928833	-60.218971	-237.539856	86.087067	185.975601	-37.037865	393.562408	259.818329	0.469458	969.808350	-24.351274	458.343781	999.630493	333.828156	606.893616	954.283997	134.689911	710.750427	903.809326	139.770218	725.349548	591.236450	186.619308	-135.894745	311.145325	244.497131	665.026428	228.347031	104.587273	701.834167	226.638412	222.626541
210	0.840000	850.540283	796.562988	168.261292	762.553040	1410.507324	364.104492	480.889618	1022.658386	121.154732	718.641113	291.889801	197.865173	353.580872	1498.047485	235.710983	362.752045	1486.694336	68.737549	406.617035	1490.085205	391.083862	216.135147	680.138306	384.828094	303.392639	1304.394165	249.532867	272.054260	776.506409	409.108826	489.094238	1332.040649	492.015472	772.458374	748.575928	104.855675	618.461304	332.121643	150.603378	259.811127	1006.548950	237.332123	548.674866	1219.913574	546.215027	638.282959	1302.346680	468.416412	310.666840	1084.233887	236.945343	293.760315	1055.136353	184.073181	296.520447	1058.082397	291.386383	-61.811722	430.400299	337.729828	362.913269	697.451172	324.890625	578.240906	845.547668	48.969036	123.601418	565.490845	349.398224	190.392807	510.942230	291.204193	704.934509	461.885071	195.427628	87.173103	1163.108154	-45.904484	-230.025681	265.229919	296.547791	-275.798615	99.010735	302.547791	683.322327	806.788086	70.889534	-250.620636	183.890121	292.339386	230.036423	1384.740112	-24.901806	677.279602	277.495148	137.930664	789.989502	237.738892	181.908325	297.995789	622.345459	303.743225	492.584473	1408.397949	209.800919	-205.697662	78.981438	229.301025	693.454224	537.438782	118.144417	549.130676	318.387939	205.082947	-276.055939	319.462067	246.618851	-198.820679	162.160995	240.000610	109.369171	1312.723389	-57.797668	-228.240738	96.752922	188.156967	-17.444193	401.919189	260.193939	25.263264	974.906555	-23.040161	486.674133	999.585815	331.783447	634.859863	954.349792	135.564163	738.472961	904.105896	140.234604	763.238586	588.768616	186.649323	-118.238052	322.186646	244.965302	725.541992	221.187561	105.990082	761.984985	222.324875	223.715027
211	0.844000	877.755432	796.530334	168.307724	782.441406	1423.475220	360.811401	509.670807	1023.335938	121.065971	774.183105	285.811798	199.522369	381.932068	1499.350342	236.373291	390.239746	1488.047119	69.557007	435.146515	1491.810547	390.845184	242.722412	683.728821	385.162109	331.927124	1305.752319	251.227234	299.718506	779.481262	409.584900	520.414307	1334.724609	491.050323	800.258545	746.997742	105.037964	671.938660	320.419220	152.372238	288.624359	1008.200378	239.096085	583.448486	1221.837769	543.447266	665.147095	1309.800049	467.193665	340.010376	1085.409180	237.767288	322.676575	1056.285889	185.236923	325.922150	1059.890503	292.391083	-39.801655	439.068848	338.244873	389.196442	699.728088	324.075104	606.278870	845.205444	49.303040	148.914383	569.954712	349.218445	214.483963	513.765076	290.726013	750.153992	455.342224	195.781464	112.396538	1168.077515	-44.786514	-214.452316	280.543488	296.902985	-265.588013	115.819130	303.832184	711.156006	806.285950	71.695992	-236.938034	199.869537	293.422943	256.023315	1388.205933	-22.576662	733.592285	268.550873	139.725922	848.460327	235.733063	183.893448	323.493317	625.634338	302.854706	520.871948	1409.484863	209.380478	-195.963257	92.142700	230.897095	733.782837	529.969788	118.190430	603.503296	302.563324	206.720993	-258.927917	335.271423	246.169098	-185.876846	176.120575	241.534012	134.547638	1317.964600	-55.736691	-217.608154	111.226524	189.717880	2.519978	410.564758	260.107422	50.598980	979.496216	-22.171896	516.083557	1000.103577	331.643799	662.862976	953.721436	136.341675	765.722351	903.277161	141.041489	800.558228	585.694580	186.930664	-100.621788	333.902008	244.926239	785.125793	214.838547	107.723709	821.326233	218.860168	225.145203
